<?xml version="1.0" standalone="no"?>
<!DOCTYPE svg PUBLIC "-//W3C//DTD SVG 20010904//EN"
 "http://www.w3.org/TR/2001/REC-SVG-20010904/DTD/svg10.dtd">
<svg version="1.0" xmlns="http://www.w3.org/2000/svg"
 width="289.000000pt" height="289.000000pt" viewBox="0 0 289.000000 289.000000"
 preserveAspectRatio="xMidYMid meet">
<metadata>
Created by potrace 1.11, written by Peter Selinger 2001-2013
</metadata>
<g transform="translate(0.000000,289.000000) scale(0.100000,-0.100000)"
fill="#000000" stroke="none">
<path d="M1550 2875 c-7 -9 -29 -23 -48 -31 -19 -8 -33 -17 -30 -20 9 -8 71
21 87 40 8 9 12 19 9 21 -3 3 -11 -2 -18 -10z"/>
<path d="M1706 2881 c-14 -5 -16 -10 -7 -15 15 -9 41 -1 41 14 0 11 -7 12 -34
1z"/>
<path d="M1366 2871 c-4 -5 3 -7 14 -4 23 6 26 13 6 13 -8 0 -17 -4 -20 -9z"/>
<path d="M0 2781 c0 -6 9 -9 19 -8 11 0 17 5 15 9 -7 11 -34 10 -34 -1z"/>
<path d="M1765 2724 c-33 -14 -70 -37 -83 -50 -13 -13 -32 -24 -42 -24 -15 0
-20 -7 -20 -24 0 -40 18 -40 54 -2 18 20 36 33 39 29 4 -3 2 -12 -4 -20 -21
-25 2 -13 34 18 l32 31 -27 -6 c-16 -4 -28 -2 -28 3 0 13 33 23 52 16 9 -4 18
1 21 9 8 19 47 21 67 4 8 -7 4 -1 -9 15 -14 15 -25 27 -25 27 -1 -1 -28 -12
-61 -26z"/>
<path d="M1620 2717 c0 -8 6 -20 14 -26 12 -10 13 -8 9 9 -7 25 -23 37 -23 17z"/>
<path d="M2665 2720 c3 -5 17 -10 31 -10 13 0 24 5 24 10 0 6 -14 10 -31 10
-17 0 -28 -4 -24 -10z"/>
<path d="M0 2668 c0 -16 2 -28 4 -28 2 0 11 -3 20 -6 21 -8 20 6 -4 36 l-20
25 0 -27z"/>
<path d="M2500 2640 c-13 -8 -12 -10 3 -10 9 0 17 5 17 10 0 12 -1 12 -20 0z"/>
<path d="M10 2575 c-11 -21 -10 -28 4 -50 11 -16 23 -24 32 -21 8 3 13 2 10
-3 -3 -5 3 -11 14 -14 11 -3 20 -1 20 4 0 5 -5 9 -11 9 -5 0 -7 5 -4 10 3 6
-1 10 -9 10 -18 0 -20 8 -7 29 5 8 16 11 30 6 28 -9 27 11 -1 26 -18 10 -24 8
-39 -10 -21 -26 -33 -27 -19 -2 12 24 13 31 2 31 -5 0 -15 -11 -22 -25z"/>
<path d="M1545 2580 c-19 -8 -19 -9 2 -9 12 -1 28 -4 37 -7 11 -4 16 -1 16 10
0 17 -23 20 -55 6z"/>
<path d="M1657 2576 c-4 -10 1 -20 13 -26 25 -14 32 1 10 23 -15 16 -18 16
-23 3z"/>
<path d="M2345 2570 c-3 -5 9 -19 27 -30 30 -18 33 -18 37 -3 6 28 -49 57 -64
33z"/>
<path d="M1494 2562 c-9 -5 -8 -10 1 -19 11 -10 13 -9 12 7 -1 11 -1 20 -2 20
0 0 -5 -4 -11 -8z"/>
<path d="M1754 2525 c-9 -19 -9 -27 1 -35 16 -13 28 0 14 17 -6 7 -9 13 -5 13
7 0 89 -35 118 -51 10 -5 28 -9 40 -8 16 0 9 6 -23 19 -25 10 -63 30 -84 44
-46 32 -47 32 -61 1z"/>
<path d="M101 2527 c-6 -8 -8 -17 -4 -20 7 -8 33 11 33 24 0 13 -16 11 -29 -4z"/>
<path d="M1455 2530 c3 -5 8 -10 11 -10 2 0 4 5 4 10 0 6 -5 10 -11 10 -5 0
-7 -4 -4 -10z"/>
<path d="M2090 2531 c0 -8 47 -21 76 -21 8 0 14 7 14 15 0 11 -12 15 -45 15
-25 0 -45 -4 -45 -9z"/>
<path d="M1606 2507 c-17 -13 -17 -14 -1 -30 19 -20 24 -20 45 -7 9 6 11 10 3
10 -7 0 -10 7 -6 17 4 10 2 14 -4 10 -6 -4 -13 -2 -15 3 -2 7 -10 6 -22 -3z
m15 -24 c13 -16 12 -17 -3 -4 -10 7 -18 15 -18 17 0 8 8 3 21 -13z"/>
<path d="M1436 2501 c-3 -3 3 -16 12 -28 20 -25 72 -40 72 -21 0 15 -78 60
-84 49z"/>
<path d="M1525 2500 c3 -5 10 -10 16 -10 5 0 9 5 9 10 0 6 -7 10 -16 10 -8 0
-12 -4 -9 -10z"/>
<path d="M1690 2486 c0 -7 7 -20 16 -27 14 -12 14 -14 -3 -20 -10 -3 -24 -2
-31 4 -10 8 -19 8 -32 -1 -10 -6 -34 -8 -54 -5 -32 5 -35 3 -31 -15 2 -11 -3
-26 -11 -32 -7 -7 -11 -16 -8 -21 3 -5 -5 -9 -18 -9 -21 0 -58 -30 -58 -46 0
-3 -12 -18 -28 -32 -46 -44 -71 -82 -65 -98 4 -10 -2 -17 -15 -21 -13 -3 -19
-10 -15 -19 6 -17 -34 -64 -54 -64 -8 0 -11 5 -7 11 4 7 0 9 -14 5 -26 -9 -36
28 -16 59 13 19 13 23 1 28 -8 3 -19 1 -24 -4 -6 -6 -18 -6 -34 0 l-24 10 27
0 c14 1 34 4 43 7 14 6 13 9 -6 30 -12 13 -17 24 -11 24 6 0 19 -11 28 -25 13
-19 23 -24 50 -22 37 2 41 18 6 27 -29 7 -72 47 -72 67 0 15 -1 15 -17 -1 -10
-9 -27 -23 -38 -31 -17 -12 -18 -16 -5 -24 8 -6 11 -13 7 -18 -5 -4 -12 -1
-16 6 -14 22 -33 3 -20 -20 5 -11 7 -29 4 -39 -5 -16 -2 -20 14 -20 12 0 21
-4 21 -10 0 -5 7 -10 15 -10 8 0 15 -9 15 -20 0 -11 6 -20 14 -20 30 0 36 -25
11 -52 -13 -14 -21 -29 -18 -32 4 -3 0 -6 -8 -6 -8 0 -25 -16 -39 -34 -19 -27
-32 -34 -57 -34 -32 0 -43 11 -23 23 16 10 12 22 -10 28 -22 6 -28 -8 -7 -16
6 -3 -3 -6 -21 -6 -26 -1 -33 -5 -30 -18 3 -13 12 -17 31 -15 15 1 27 -2 27
-8 0 -6 11 -8 28 -4 26 7 27 6 9 -13 -9 -11 -14 -23 -10 -27 11 -11 -19 -26
-39 -20 -10 3 -21 -3 -27 -15 -15 -27 -14 -30 10 -24 19 5 20 4 10 -14 -6 -12
-18 -24 -28 -27 -14 -6 -15 -9 -4 -15 11 -7 10 -12 -1 -30 -7 -12 -19 -19 -26
-16 -7 2 -21 0 -31 -7 -14 -9 -23 -7 -42 5 -13 10 -19 17 -14 17 6 0 4 4 -4 9
-11 7 -7 14 20 30 19 12 28 21 21 21 -9 0 -11 10 -6 35 4 25 3 35 -6 35 -9 0
-8 6 3 18 10 10 17 30 17 45 0 14 5 29 10 32 6 3 10 15 10 25 0 11 10 30 23
43 33 35 47 64 40 83 -5 13 -2 15 15 10 23 -8 41 12 22 24 -7 5 -23 5 -34 0
-13 -5 -32 -2 -50 7 -15 8 -25 10 -22 4 5 -7 -5 -11 -26 -11 -28 0 -43 -10
-88 -56 -37 -38 -54 -63 -52 -76 2 -12 -1 -18 -6 -14 -6 4 -14 2 -17 -4 -4 -6
-15 -8 -26 -5 -21 7 -28 -20 -6 -28 9 -3 7 -10 -6 -23 -16 -17 -17 -17 -17 -1
0 9 -7 17 -16 17 -10 0 -12 -4 -7 -12 11 -18 14 -80 3 -73 -4 3 -17 -10 -28
-27 -16 -25 -18 -36 -9 -46 9 -11 6 -18 -12 -32 -22 -16 -23 -18 -6 -27 10 -6
15 -15 11 -22 -6 -9 -12 -9 -24 1 -13 11 -12 8 2 -14 13 -21 15 -31 7 -47 -6
-11 -11 -27 -11 -37 0 -21 -77 -182 -96 -201 -8 -8 -12 -19 -9 -24 4 -5 -1 -6
-9 -3 -10 4 -16 1 -16 -9 0 -9 -11 -27 -24 -40 -14 -14 -23 -27 -20 -30 3 -2
-4 -20 -15 -40 -11 -19 -17 -38 -14 -41 4 -3 1 -6 -5 -6 -7 0 -12 -6 -12 -14
0 -8 -10 -16 -23 -20 -29 -7 -96 -104 -79 -115 9 -5 5 -12 -13 -21 -17 -9 -23
-19 -20 -31 4 -10 -4 -28 -20 -45 l-25 -27 -20 20 c-19 21 -19 21 11 33 16 7
29 19 29 26 0 18 -24 18 -40 -1 -7 -8 -16 -12 -21 -9 -5 3 -13 -6 -19 -20 -5
-14 -14 -26 -20 -26 -15 0 -8 -42 8 -48 7 -2 12 5 12 17 0 27 17 35 36 17 16
-17 11 -55 -10 -68 -6 -4 -11 -11 -12 -15 -2 -23 -28 -62 -38 -56 -7 5 -7 2 1
-8 17 -21 -7 -50 -35 -42 -25 6 -30 -12 -6 -21 15 -6 15 -8 -1 -26 -10 -11
-21 -17 -26 -14 -5 2 -22 -2 -39 -11 -41 -21 -39 -53 3 -46 4 0 7 -2 7 -6 -1
-13 -27 -43 -37 -43 -20 0 -23 -45 -23 -322 l0 -278 190 0 190 0 77 78 c72 72
147 122 184 122 8 0 19 4 25 10 5 5 32 13 59 16 28 4 53 11 56 17 8 12 31 -1
24 -14 -4 -5 1 -9 9 -9 8 0 18 5 21 10 3 6 1 10 -6 10 -26 0 2 13 33 15 34 2
64 15 158 65 30 17 69 30 86 30 18 0 34 4 36 8 2 4 43 27 91 51 49 24 94 49
100 55 7 7 37 20 67 29 54 17 68 27 175 117 29 25 66 52 82 60 15 8 48 34 73
57 24 23 56 45 70 48 15 3 49 29 76 57 69 71 130 93 155 55 13 -18 31 5 24 30
-7 31 9 53 36 46 13 -4 18 -11 14 -23 -7 -21 29 -57 40 -40 4 7 3 15 -3 19 -5
3 -12 22 -14 41 -3 31 0 35 21 38 13 2 37 17 53 33 33 33 53 37 66 13 8 -15
12 -15 40 0 41 21 82 66 82 89 0 11 -4 15 -12 11 -7 -4 -8 -3 -4 4 4 6 -1 24
-11 39 -31 49 -33 50 -177 68 -22 2 -44 9 -50 15 -18 18 -46 11 -56 -15 -5
-14 -18 -28 -27 -31 -10 -3 -31 -12 -48 -20 -16 -8 -42 -15 -57 -16 -21 -2
-28 -8 -28 -23 0 -15 -17 -28 -65 -52 -36 -17 -62 -27 -59 -21 4 7 2 8 -4 4
-7 -4 -12 -14 -12 -22 0 -8 -10 -14 -25 -14 -13 0 -28 -6 -32 -14 -12 -19 -48
-36 -80 -37 l-28 0 25 -10 25 -10 -24 -20 c-13 -10 -30 -19 -38 -19 -8 0 -31
-13 -51 -29 -31 -25 -42 -29 -72 -23 -22 5 -36 14 -38 26 -5 23 45 76 71 76
13 0 17 5 13 15 -3 8 -1 15 3 15 5 0 8 8 6 18 -1 9 3 23 9 31 8 11 8 13 -1 7
-18 -10 -16 -1 3 18 17 17 49 22 39 6 -3 -6 2 -10 12 -10 15 1 13 5 -11 26
-15 14 -27 27 -25 29 2 2 21 5 41 6 47 4 68 -13 50 -41 -10 -16 -10 -20 1 -20
16 0 37 23 57 63 13 25 12 30 -8 49 -16 16 -24 19 -34 10 -8 -6 -27 -16 -43
-22 -27 -10 -25 -6 21 42 29 29 61 74 72 101 17 39 25 47 47 47 24 0 75 40
155 122 14 15 38 30 53 33 15 4 27 14 27 21 0 8 8 18 17 21 24 9 74 55 68 61
-10 11 37 50 53 45 10 -4 13 -2 8 5 -4 7 -2 12 6 12 7 0 24 9 38 21 14 11 50
36 80 56 30 20 68 50 84 65 16 16 43 36 60 44 99 46 232 149 240 185 20 98
-95 122 -229 48 -29 -16 -60 -29 -69 -29 -9 0 -16 -4 -16 -9 0 -10 -85 -71
-99 -71 -5 0 -25 -11 -45 -25 -20 -14 -47 -27 -61 -31 -13 -3 -26 -12 -29 -20
-3 -8 -14 -14 -25 -14 -11 0 -22 -4 -26 -10 -3 -5 -12 -7 -20 -3 -9 3 -15 -1
-15 -8 0 -8 -21 -25 -46 -38 -25 -14 -54 -35 -64 -49 -11 -13 -26 -22 -34 -19
-7 3 -24 -1 -36 -10 -15 -11 -25 -12 -32 -5 -6 6 -16 8 -23 5 -10 -3 -12 2 -8
16 3 12 12 21 20 21 8 0 21 7 29 15 9 8 25 15 37 15 12 0 39 16 61 35 21 19
42 36 47 36 5 1 13 2 17 3 4 0 26 19 48 41 61 60 113 103 133 110 9 3 26 13
37 23 10 10 39 30 64 44 54 32 137 107 141 128 4 21 -19 64 -40 77 -23 14 -90
18 -116 7 -11 -4 -50 -27 -87 -51 -36 -24 -71 -43 -76 -43 -4 0 -19 -11 -31
-24 -13 -13 -34 -27 -48 -31 -14 -3 -37 -17 -51 -31 -44 -41 -164 -105 -201
-108 -19 -1 -37 -8 -40 -16 -3 -8 -15 -16 -26 -18 -11 -2 -26 -12 -33 -22 -10
-14 -22 -18 -45 -14 -30 4 -31 4 -7 -6 l24 -11 -29 -24 c-29 -24 -72 -35 -60
-16 3 6 -4 15 -15 21 -18 10 -19 13 -6 25 8 8 20 15 26 15 8 0 10 9 5 28 -6
25 -5 26 8 8 11 -15 18 -17 33 -8 11 7 13 12 6 12 -7 0 -21 8 -30 17 -16 16
-16 16 6 11 19 -5 21 -4 11 8 -9 11 -8 14 7 15 14 1 13 3 -6 9 -22 6 -23 8 -8
15 10 4 15 11 12 16 -6 11 7 12 22 1 6 -4 10 -15 8 -24 -1 -10 2 -18 7 -18 5
0 9 5 9 10 0 6 8 5 19 -2 15 -9 23 -9 35 1 21 17 11 31 -22 31 -30 0 -46 9
-49 28 -2 7 7 12 21 12 14 0 27 4 31 10 3 5 12 7 20 3 8 -3 15 0 15 6 0 14
-27 15 -35 1 -4 -6 -11 -8 -16 -4 -11 7 28 49 46 49 5 0 9 7 7 16 -1 8 7 25
17 36 11 11 17 24 14 27 -4 3 1 6 9 6 11 0 14 7 11 24 -3 13 0 27 5 30 12 7 1
33 -37 84 -26 34 -41 41 -41 18z m-86 -77 c-3 -5 -10 -7 -15 -3 -5 3 -7 10 -3
15 3 5 10 7 15 3 5 -3 7 -10 3 -15z m-76 -464 c10 -22 9 -28 -13 -47 -13 -11
-22 -25 -18 -31 3 -5 -4 -6 -18 -2 -21 7 -22 6 -11 -7 10 -13 9 -17 -10 -21
-29 -8 -45 7 -28 28 7 8 18 15 25 15 21 0 56 51 50 72 -9 27 10 22 23 -7z
m-118 -156 c0 -11 -4 -18 -10 -14 -5 3 -7 12 -3 20 7 21 13 19 13 -6z m380
-39 c0 -5 -4 -10 -9 -10 -6 0 -13 5 -16 10 -3 6 1 10 9 10 9 0 16 -4 16 -10z
m-20 -20 c0 -5 -14 -10 -31 -10 -17 0 -28 4 -24 10 3 6 17 10 31 10 13 0 24
-4 24 -10z m-774 -35 c-3 -21 -47 -65 -65 -65 -10 0 -1 14 24 40 44 45 44 45
41 25z m-66 -5 c0 -5 -5 -10 -11 -10 -5 0 -7 5 -4 10 3 6 8 10 11 10 2 0 4 -4
4 -10z m-14 -35 c-8 -8 -17 -15 -20 -15 -3 0 -3 7 0 15 4 8 13 15 21 15 12 0
12 -2 -1 -15z m724 -5 c0 -5 -5 -10 -11 -10 -5 0 -7 5 -4 10 3 6 8 10 11 10 2
0 4 -4 4 -10z m-55 -40 c-3 -5 -12 -10 -18 -10 -7 0 -6 4 3 10 19 12 23 12 15
0z"/>
<path d="M93 2466 c-13 -6 -23 -16 -23 -22 0 -6 10 -15 23 -21 20 -9 22 -8 24
23 1 19 1 33 0 33 -1 -1 -12 -6 -24 -13z"/>
<path d="M1415 2450 c3 -5 8 -10 11 -10 2 0 4 5 4 10 0 6 -5 10 -11 10 -5 0
-7 -4 -4 -10z"/>
<path d="M2504 2445 c-4 -8 -12 -15 -18 -15 -7 0 -21 -7 -32 -15 -17 -14 -15
-14 20 0 47 18 42 19 64 -5 22 -23 47 -18 63 12 9 18 8 19 -11 13 -11 -4 -26
-2 -33 3 -25 19 -48 22 -53 7z"/>
<path d="M205 2408 c-25 -30 -26 -33 -9 -39 11 -3 20 -1 22 5 2 6 8 21 14 33
18 36 3 37 -27 1z"/>
<path d="M140 2416 c0 -17 14 -29 23 -20 8 8 -3 34 -14 34 -5 0 -9 -6 -9 -14z"/>
<path d="M1390 2420 c0 -5 7 -7 15 -4 8 4 15 8 15 10 0 2 -7 4 -15 4 -8 0 -15
-4 -15 -10z"/>
<path d="M1440 2420 c-13 -8 -12 -10 3 -10 9 0 17 5 17 10 0 12 -1 12 -20 0z"/>
<path d="M40 2400 c0 -5 7 -15 15 -24 8 -8 15 -19 15 -25 0 -18 23 -61 33 -61
11 0 0 65 -16 91 -12 19 -47 33 -47 19z"/>
<path d="M1210 2400 c0 -5 7 -10 16 -10 8 0 12 5 9 10 -3 6 -10 10 -16 10 -5
0 -9 -4 -9 -10z"/>
<path d="M1940 2380 c0 -5 5 -10 11 -10 5 0 7 5 4 10 -3 6 -8 10 -11 10 -2 0
-4 -4 -4 -10z"/>
<path d="M2177 2384 c-4 -4 -4 -10 -2 -14 6 -9 54 0 61 11 6 10 -49 12 -59 3z"/>
<path d="M1260 2369 c0 -5 5 -7 10 -4 6 3 10 8 10 11 0 2 -4 4 -10 4 -5 0 -10
-5 -10 -11z"/>
<path d="M20 2361 c0 -5 5 -22 10 -37 7 -18 7 -29 1 -33 -5 -4 -12 -19 -15
-34 -2 -15 -8 -36 -11 -47 -4 -11 -2 -20 4 -20 6 0 11 6 11 13 0 24 21 37 36
22 8 -7 14 -16 14 -20 0 -11 28 -35 40 -35 6 0 9 -4 6 -9 -3 -5 -15 -7 -26 -4
-16 4 -19 2 -14 -11 11 -30 54 -11 54 25 0 9 8 23 17 30 15 12 16 12 10 -3 -3
-10 -2 -18 2 -18 19 0 23 61 5 79 -3 3 -4 -3 -2 -13 4 -25 -57 -63 -66 -40 -3
8 -3 21 0 29 4 11 2 13 -9 9 -21 -8 -39 29 -31 61 4 15 2 25 -5 25 -6 0 -11 6
-11 14 0 8 -4 18 -10 21 -5 3 -10 2 -10 -4z"/>
<path d="M268 2363 c7 -3 16 -2 19 1 4 3 -2 6 -13 5 -11 0 -14 -3 -6 -6z"/>
<path d="M2093 2358 c-40 -13 -44 -33 -5 -24 15 4 34 8 42 9 19 4 25 21 8 24
-7 0 -28 -4 -45 -9z"/>
<path d="M157 2343 c-12 -11 -8 -21 12 -28 11 -3 21 -14 23 -23 3 -15 4 -16
10 -1 4 9 0 26 -8 38 -16 22 -26 26 -37 14z"/>
<path d="M1300 2333 c-14 -7 -20 -13 -15 -13 6 0 3 -5 -5 -10 -10 -6 -11 -10
-2 -10 12 0 57 39 50 44 -1 2 -14 -3 -28 -11z"/>
<path d="M293 2326 c14 -14 21 -16 30 -7 8 8 8 11 0 11 -6 0 -20 3 -30 7 -17
7 -17 6 0 -11z"/>
<path d="M530 2330 c0 -5 -7 -10 -15 -10 -8 0 -15 -5 -15 -10 0 -7 6 -7 20 0
18 10 28 30 15 30 -3 0 -5 -4 -5 -10z"/>
<path d="M1378 2333 c6 -2 18 -2 25 0 6 3 1 5 -13 5 -14 0 -19 -2 -12 -5z"/>
<path d="M1395 2310 c-16 -7 -17 -9 -3 -9 9 -1 20 4 23 9 7 11 7 11 -20 0z"/>
<path d="M655 2288 c6 -15 45 -42 45 -31 0 5 -12 16 -25 26 -16 11 -23 13 -20
5z"/>
<path d="M135 2280 c3 -5 11 -10 16 -10 6 0 7 5 4 10 -3 6 -11 10 -16 10 -6 0
-7 -4 -4 -10z"/>
<path d="M1260 2270 c6 -11 16 -20 22 -20 6 0 3 9 -7 20 -10 11 -20 20 -22 20
-2 0 1 -9 7 -20z"/>
<path d="M1290 2280 c0 -5 7 -10 15 -10 8 0 15 5 15 10 0 6 -7 10 -15 10 -8 0
-15 -4 -15 -10z"/>
<path d="M102 2268 c2 -6 10 -14 16 -16 7 -2 10 2 6 12 -7 18 -28 22 -22 4z"/>
<path d="M226 2265 c-4 -12 -1 -16 14 -13 24 3 28 22 7 26 -8 2 -17 -4 -21
-13z"/>
<path d="M440 2250 c0 -13 11 -13 30 0 12 8 11 10 -7 10 -13 0 -23 -4 -23 -10z"/>
<path d="M239 2226 c9 -11 9 -16 0 -21 -6 -4 -16 -1 -21 6 -8 11 -9 10 -4 -4
3 -9 -3 -33 -14 -52 -22 -40 -17 -45 16 -14 12 12 20 27 17 35 -3 8 1 14 10
14 9 0 14 7 12 18 -2 9 -4 20 -4 25 -1 4 -6 7 -12 7 -8 0 -8 -4 0 -14z"/>
<path d="M850 2225 c0 -8 4 -15 10 -15 5 0 7 7 4 15 -4 8 -8 15 -10 15 -2 0
-4 -7 -4 -15z"/>
<path d="M535 2190 c4 -6 11 -8 16 -5 14 9 11 15 -7 15 -8 0 -12 -5 -9 -10z"/>
<path d="M1081 2186 c-15 -18 1 -30 29 -21 24 8 26 21 4 29 -21 8 -20 8 -33
-8z"/>
<path d="M1680 2170 c0 -5 7 -7 15 -4 8 4 15 8 15 10 0 2 -7 4 -15 4 -8 0 -15
-4 -15 -10z"/>
<path d="M0 2160 c0 -5 5 -10 11 -10 5 0 7 5 4 10 -3 6 -8 10 -11 10 -2 0 -4
-4 -4 -10z"/>
<path d="M40 2160 c0 -5 5 -10 11 -10 5 0 7 5 4 10 -3 6 -8 10 -11 10 -2 0 -4
-4 -4 -10z"/>
<path d="M369 2156 c6 -7 8 -16 4 -19 -3 -4 7 -6 23 -6 17 1 22 3 11 6 -9 2
-15 8 -12 13 3 4 -4 10 -16 13 -15 4 -18 2 -10 -7z"/>
<path d="M1020 2160 c0 -5 5 -10 10 -10 6 0 10 5 10 10 0 6 -4 10 -10 10 -5 0
-10 -4 -10 -10z"/>
<path d="M1145 2126 c-11 -8 -14 -16 -8 -19 6 -4 18 0 28 7 11 8 14 16 8 19
-6 4 -18 0 -28 -7z"/>
<path d="M120 2109 c0 -5 -4 -7 -10 -4 -5 3 -10 1 -10 -5 0 -7 6 -10 13 -7 8
3 20 2 27 -3 8 -5 2 -10 -21 -15 -19 -4 -52 -16 -73 -27 -30 -15 -36 -22 -25
-29 10 -6 19 -3 30 11 9 10 19 16 23 13 11 -11 6 -23 -8 -23 -9 0 -13 -7 -11
-20 2 -12 -2 -20 -10 -20 -15 0 -30 -18 -22 -27 3 -3 18 7 34 21 30 28 39 31
48 16 9 -14 21 -12 39 6 22 22 20 34 -5 31 -12 -1 -24 4 -26 11 -3 6 0 12 6
12 18 0 51 34 51 52 0 13 -8 18 -25 18 -14 0 -25 -5 -25 -11z"/>
<path d="M387 2114 c-8 -9 21 -36 34 -32 6 2 2 11 -9 21 -10 9 -21 14 -25 11z"/>
<path d="M335 2100 c-3 -5 1 -10 10 -10 9 0 13 5 10 10 -3 6 -8 10 -10 10 -2
0 -7 -4 -10 -10z"/>
<path d="M505 2100 c-3 -5 -1 -10 4 -10 6 0 11 5 11 10 0 6 -2 10 -4 10 -3 0
-8 -4 -11 -10z"/>
<path d="M609 2093 c-13 -16 -12 -17 4 -4 9 7 17 15 17 17 0 8 -8 3 -21 -13z"/>
<path d="M802 2088 c-14 -14 -16 -28 -3 -28 5 0 11 9 14 20 6 23 5 24 -11 8z"/>
<path d="M1168 2062 c-3 -33 -1 -38 14 -34 22 5 24 45 4 61 -11 10 -15 5 -18
-27z"/>
<path d="M35 2080 c-3 -6 1 -7 9 -4 18 7 21 14 7 14 -6 0 -13 -4 -16 -10z"/>
<path d="M270 2072 c0 -5 -13 -7 -30 -4 -18 3 -30 0 -30 -7 0 -13 52 -15 66
-2 5 5 18 11 29 14 15 4 13 5 -7 6 -16 0 -28 -3 -28 -7z"/>
<path d="M533 2066 c0 -6 15 -11 34 -11 18 0 33 3 33 8 0 4 -3 7 -7 8 -42 6
-60 4 -60 -5z"/>
<path d="M320 2051 c0 -19 22 -23 38 -7 15 15 14 16 -11 16 -15 0 -27 -4 -27
-9z"/>
<path d="M675 2050 c3 -5 10 -10 16 -10 5 0 9 5 9 10 0 6 -7 10 -16 10 -8 0
-12 -4 -9 -10z"/>
<path d="M421 2041 c-8 -5 -19 -7 -25 -5 -6 2 -19 -9 -29 -25 -22 -37 -21 -41
3 -41 11 0 20 5 20 11 0 16 23 34 48 36 26 3 29 -15 5 -33 -13 -10 -14 -13 -4
-14 8 0 20 -8 28 -17 13 -17 14 -16 10 5 -3 12 -1 22 4 22 11 0 -23 62 -36 67
-6 1 -16 -1 -24 -6z"/>
<path d="M197 2021 c3 -12 10 -21 15 -21 13 0 6 32 -9 37 -7 3 -9 -3 -6 -16z"/>
<path d="M480 2020 c0 -7 24 -20 36 -20 13 0 1 19 -16 23 -11 3 -20 2 -20 -3z"/>
<path d="M226 2004 c-3 -9 -6 -19 -6 -23 0 -10 39 -11 45 0 4 5 13 9 21 9 8 0
12 -4 9 -10 -3 -5 3 -10 14 -10 11 0 23 5 27 12 5 8 2 9 -11 4 -14 -5 -16 -4
-6 7 9 12 5 16 -20 21 -49 10 -66 7 -73 -10z"/>
<path d="M740 2013 c8 -3 20 -10 26 -14 6 -5 11 -4 11 4 0 7 -12 13 -26 14
-14 1 -19 -1 -11 -4z"/>
<path d="M540 1971 c0 -5 -9 -7 -20 -4 -11 3 -20 0 -20 -6 0 -6 16 -11 35 -11
24 0 35 5 35 15 0 8 -7 15 -15 15 -8 0 -15 -4 -15 -9z"/>
<path d="M150 1931 c0 -5 7 -11 15 -15 9 -3 15 0 15 9 0 8 -7 15 -15 15 -8 0
-15 -4 -15 -9z"/>
<path d="M246 1932 c-3 -6 -1 -14 5 -17 15 -10 25 3 12 16 -7 7 -13 7 -17 1z"/>
<path d="M374 1931 c8 -12 -29 -43 -39 -34 -4 5 -5 3 -1 -4 7 -12 36 -7 36 6
0 4 10 7 23 8 56 4 107 15 107 23 0 5 -12 5 -27 0 -29 -10 -58 -9 -69 3 -10
10 -36 9 -30 -2z"/>
<path d="M668 1933 c7 -3 16 -2 19 1 4 3 -2 6 -13 5 -11 0 -14 -3 -6 -6z"/>
<path d="M590 1920 c0 -5 5 -10 10 -10 6 0 10 5 10 10 0 6 -4 10 -10 10 -5 0
-10 -4 -10 -10z"/>
<path d="M33 1898 c-22 -29 -23 -36 -3 -31 13 3 22 -1 26 -11 9 -24 -4 -32
-26 -18 -29 18 -30 17 -30 -43 0 -48 2 -55 20 -55 11 0 29 5 39 12 15 9 24 7
48 -10 17 -12 33 -19 36 -15 4 3 -1 11 -10 18 -11 8 -13 14 -5 19 7 4 12 2 12
-3 0 -6 5 -11 10 -11 6 0 10 7 10 15 0 8 -5 15 -12 15 -9 0 -9 3 0 12 18 18
15 28 -8 28 -11 0 -20 -4 -20 -10 0 -5 -4 -10 -10 -10 -5 0 -10 7 -10 15 0 8
5 15 10 15 18 0 6 25 -15 31 -13 3 -20 13 -19 27 1 24 -27 31 -43 10z m62
-119 c11 -17 2 -18 -19 -3 -17 12 -17 14 -4 14 9 0 20 -5 23 -11z"/>
<path d="M604 1899 c-7 -12 32 -48 54 -49 17 0 15 11 -7 38 -21 24 -36 28 -47
11z"/>
<path d="M1006 1901 c-4 -7 -5 -15 -2 -18 9 -9 19 4 14 18 -4 11 -6 11 -12 0z"/>
<path d="M956 1881 c-3 -5 1 -14 9 -21 8 -7 12 -16 9 -21 -3 -5 2 -9 10 -9 19
0 19 2 4 35 -12 26 -23 32 -32 16z"/>
<path d="M255 1870 c-2 -4 7 -12 20 -18 16 -7 26 -8 30 -1 4 5 16 7 28 3 18
-6 19 -5 6 8 -14 15 -76 21 -84 8z"/>
<path d="M403 1865 c-13 -7 -20 -14 -17 -17 3 -4 -8 -9 -25 -13 -34 -7 -38
-16 -16 -35 8 -7 12 -17 8 -23 -4 -7 8 -8 37 -3 27 4 47 2 56 -5 20 -16 18 3
-3 40 -10 17 -22 31 -28 31 -5 0 -4 4 4 9 22 14 8 28 -16 16z"/>
<path d="M135 1860 c-3 -5 -2 -10 4 -10 5 0 13 5 16 10 3 6 2 10 -4 10 -5 0
-13 -4 -16 -10z"/>
<path d="M570 1845 c0 -9 5 -15 11 -13 6 2 11 8 11 13 0 5 -5 11 -11 13 -6 2
-11 -4 -11 -13z"/>
<path d="M258 1833 c7 -3 16 -2 19 1 4 3 -2 6 -13 5 -11 0 -14 -3 -6 -6z"/>
<path d="M516 1822 c-3 -6 3 -12 15 -15 12 -3 19 -1 16 6 -5 15 -24 20 -31 9z"/>
<path d="M280 1800 c19 -13 30 -13 30 0 0 6 -10 10 -22 10 -19 0 -20 -2 -8
-10z"/>
<path d="M625 1790 c-18 -20 -18 -20 8 -20 28 0 32 6 19 28 -7 9 -13 8 -27 -8z"/>
<path d="M565 1780 c-3 -5 1 -10 10 -10 9 0 13 5 10 10 -3 6 -8 10 -10 10 -2
0 -7 -4 -10 -10z"/>
<path d="M2540 1774 c0 -13 38 -26 52 -18 17 10 7 22 -22 26 -19 3 -30 0 -30
-8z"/>
<path d="M488 1747 c4 -17 1 -19 -16 -15 -14 4 -20 2 -15 -5 4 -7 0 -8 -12 -4
-9 4 -24 2 -32 -5 -11 -9 -13 -9 -11 2 2 7 -2 14 -8 16 -11 5 -11 -52 0 -63 3
-4 13 2 21 13 8 11 15 14 15 7 0 -7 9 -13 21 -13 13 0 18 -4 13 -12 -5 -8 -1
-7 10 2 10 8 22 24 27 37 5 13 15 23 24 23 25 0 17 15 -14 26 -26 10 -28 10
-23 -9z m-8 -36 c0 -6 -4 -13 -10 -16 -5 -3 -10 1 -10 9 0 9 5 16 10 16 6 0
10 -4 10 -9z"/>
<path d="M197 1743 c-12 -12 -7 -22 8 -17 8 4 15 10 15 15 0 11 -14 12 -23 2z"/>
<path d="M2505 1720 c-3 -5 3 -10 14 -10 12 0 21 5 21 10 0 6 -6 10 -14 10 -8
0 -18 -4 -21 -10z"/>
<path d="M0 1684 c0 -31 3 -35 20 -29 12 4 20 2 20 -5 0 -6 4 -9 10 -5 5 3 6
13 3 21 -3 9 0 20 8 24 7 5 10 13 5 17 -4 4 -13 0 -20 -10 -18 -23 -29 -22
-21 3 5 14 2 20 -9 20 -12 0 -16 -10 -16 -36z"/>
<path d="M163 1685 c4 -8 2 -17 -4 -20 -5 -4 -6 -12 -2 -18 4 -6 6 -24 5 -39
-2 -24 0 -27 20 -19 12 4 24 13 26 19 2 7 -3 10 -12 6 -27 -11 -17 3 18 25 27
17 39 19 61 11 35 -13 33 -14 31 15 -1 27 -8 30 -36 15 -13 -7 -19 -6 -24 5
-8 21 -48 20 -44 -1 2 -10 -3 -19 -9 -21 -8 -3 -13 4 -13 16 0 12 -5 21 -11
21 -6 0 -9 -7 -6 -15z"/>
<path d="M565 1680 c-11 -4 -29 -18 -40 -30 l-20 -22 38 7 c39 8 48 -3 22 -25
-9 -7 -13 -15 -10 -18 7 -8 45 39 45 56 0 8 -6 12 -15 8 -8 -3 -15 -1 -15 3 0
5 6 11 13 14 6 2 10 7 7 9 -3 3 -14 2 -25 -2z"/>
<path d="M118 1673 c7 -3 16 -2 19 1 4 3 -2 6 -13 5 -11 0 -14 -3 -6 -6z"/>
<path d="M355 1660 c-4 -6 -10 -8 -14 -6 -4 3 -16 -11 -27 -31 -14 -27 -16
-37 -6 -41 6 -2 12 -8 12 -13 0 -11 -27 -12 -32 -1 -1 4 -14 2 -28 -5 l-25
-13 25 -1 c16 0 19 -3 10 -6 -8 -3 -28 -19 -44 -34 -16 -16 -33 -26 -38 -23
-4 3 -8 -5 -8 -18 0 -13 -5 -29 -11 -35 -15 -15 0 -22 32 -16 20 4 25 9 22 24
-4 14 0 19 13 20 11 0 14 3 7 6 -18 7 -16 23 2 23 8 0 15 5 15 10 0 6 6 10 14
10 8 0 16 5 18 11 2 7 19 17 38 23 19 7 34 17 33 24 -2 6 4 9 12 6 9 -4 15 0
15 8 0 8 11 20 25 26 14 6 25 19 25 28 0 18 -24 14 -26 -4 -1 -7 -2 -15 -3
-19 0 -3 -10 2 -20 11 -11 10 -17 24 -14 32 6 16 -13 19 -22 4z m15 -45 c0 -8
-4 -15 -10 -15 -5 0 -10 7 -10 15 0 8 5 15 10 15 6 0 10 -7 10 -15z"/>
<path d="M240 1638 c1 -15 24 -48 34 -48 13 0 5 48 -10 54 -22 8 -24 8 -24 -6z"/>
<path d="M527 1613 c-10 -9 -9 -23 2 -23 5 0 11 7 15 15 5 15 -5 20 -17 8z"/>
<path d="M597 1593 c-4 -3 -7 -11 -7 -17 0 -6 5 -5 12 2 6 6 9 14 7 17 -3 3
-9 2 -12 -2z"/>
<path d="M2772 1575 c0 -16 2 -22 5 -12 2 9 2 23 0 30 -3 6 -5 -1 -5 -18z"/>
<path d="M60 1569 c0 -5 5 -7 10 -4 6 3 10 8 10 11 0 2 -4 4 -10 4 -5 0 -10
-5 -10 -11z"/>
<path d="M397 1556 c-4 -10 -1 -13 9 -9 7 3 14 9 14 14 0 14 -17 10 -23 -5z"/>
<path d="M521 1551 c-8 -6 -9 -11 -3 -15 6 -3 14 -1 17 5 9 14 2 20 -14 10z"/>
<path d="M137 1492 c-14 -3 -16 -7 -6 -18 15 -18 25 -18 32 1 7 17 -1 23 -26
17z"/>
<path d="M475 1460 c-3 -5 -1 -10 4 -10 6 0 11 5 11 10 0 6 -2 10 -4 10 -3 0
-8 -4 -11 -10z"/>
<path d="M82 1421 c-26 -20 -38 -66 -23 -85 7 -8 10 -20 9 -27 -2 -9 4 -13 17
-11 l20 4 -20 -16 c-19 -15 -19 -15 8 -14 31 3 31 3 13 56 -13 36 -13 41 1 46
12 5 13 9 3 21 -10 12 -9 15 4 15 19 0 21 16 3 23 -7 3 -23 -2 -35 -12z"/>
<path d="M0 1355 c0 -8 2 -15 4 -15 2 0 12 -3 21 -7 15 -5 16 -3 6 15 -13 25
-31 29 -31 7z"/>
<path d="M399 1346 c-9 -6 -14 -17 -11 -24 3 -10 7 -10 18 -1 7 6 20 9 27 6 8
-3 19 -2 26 3 9 5 4 11 -16 17 -21 8 -34 7 -44 -1z"/>
<path d="M154 1319 c0 -20 11 -25 20 -10 3 5 0 13 -7 19 -10 8 -13 6 -13 -9z"/>
<path d="M215 1300 c-3 -5 -2 -10 4 -10 5 0 13 5 16 10 3 6 2 10 -4 10 -5 0
-13 -4 -16 -10z"/>
<path d="M190 1250 c0 -5 4 -10 9 -10 6 0 13 5 16 10 3 6 -1 10 -9 10 -9 0
-16 -4 -16 -10z"/>
<path d="M198 1221 c-15 -18 -22 -41 -19 -68 0 -6 10 -9 21 -6 11 3 18 9 15
13 -3 4 12 8 33 8 86 0 93 2 90 31 -3 24 -6 26 -45 23 -23 -1 -44 2 -48 8 -10
16 -29 12 -47 -9z m27 -21 c-3 -5 -11 -10 -16 -10 -6 0 -7 5 -4 10 3 6 11 10
16 10 6 0 7 -4 4 -10z"/>
<path d="M0 1200 c0 -5 5 -10 10 -10 6 0 10 5 10 10 0 6 -4 10 -10 10 -5 0
-10 -4 -10 -10z"/>
<path d="M90 1186 c-15 -15 -12 -33 6 -40 11 -4 15 -17 14 -43 -3 -54 -2 -55
19 -43 13 7 22 7 26 0 9 -14 23 -12 22 3 -1 38 5 55 26 65 20 11 19 12 -9 7
-34 -6 -50 12 -39 45 4 13 -1 17 -25 17 -16 0 -34 -5 -40 -11z"/>
<path d="M1 1164 c0 -11 3 -14 6 -6 3 7 2 16 -1 19 -3 4 -6 -2 -5 -13z"/>
<path d="M2842 1147 c6 -20 20 -44 30 -54 17 -15 18 -15 18 5 0 11 -13 35 -30
53 l-29 33 11 -37z"/>
<path d="M0 1124 c0 -8 5 -12 10 -9 6 3 10 10 10 16 0 5 -4 9 -10 9 -5 0 -10
-7 -10 -16z"/>
<path d="M1747 1119 c7 -7 15 -10 18 -7 3 3 -2 9 -12 12 -14 6 -15 5 -6 -5z"/>
<path d="M2780 1056 c0 -2 7 -6 15 -10 8 -3 15 -1 15 4 0 6 -7 10 -15 10 -8 0
-15 -2 -15 -4z"/>
<path d="M110 960 c-8 -5 -12 -12 -9 -15 4 -3 12 1 19 10 14 17 11 19 -10 5z"/>
<path d="M2205 950 c3 -5 8 -10 11 -10 2 0 4 5 4 10 0 6 -5 10 -11 10 -5 0 -7
-4 -4 -10z"/>
<path d="M100 871 c0 -5 7 -11 15 -15 9 -3 15 0 15 9 0 8 -7 15 -15 15 -8 0
-15 -4 -15 -9z"/>
<path d="M2200 811 c0 -6 5 -13 10 -16 6 -3 10 1 10 9 0 9 -4 16 -10 16 -5 0
-10 -4 -10 -9z"/>
<path d="M2090 750 c0 -5 5 -10 10 -10 6 0 10 5 10 10 0 6 -4 10 -10 10 -5 0
-10 -4 -10 -10z"/>
<path d="M2196 689 c-4 -32 -3 -56 3 -62 6 -6 11 -9 12 -6 5 35 5 119 -1 119
-4 0 -10 -23 -14 -51z"/>
<path d="M1780 629 c0 -5 5 -7 10 -4 6 3 10 8 10 11 0 2 -4 4 -10 4 -5 0 -10
-5 -10 -11z"/>
<path d="M2085 619 c-4 -6 -5 -13 -2 -16 7 -7 27 6 27 18 0 12 -17 12 -25 -2z"/>
<path d="M1673 567 c-52 -10 -67 -22 -39 -33 13 -5 96 31 96 41 0 3 -1 4 -2 4
-2 -1 -27 -6 -55 -12z"/>
<path d="M1620 264 c0 -26 22 -104 31 -110 5 -3 4 7 -1 21 -6 15 -10 44 -10
66 0 21 -4 39 -10 39 -5 0 -10 -7 -10 -16z"/>
</g>
</svg>
