<?xml version="1.0" standalone="no"?>
<!DOCTYPE svg PUBLIC "-//W3C//DTD SVG 20010904//EN"
 "http://www.w3.org/TR/2001/REC-SVG-20010904/DTD/svg10.dtd">
<svg version="1.0" xmlns="http://www.w3.org/2000/svg"
 width="242.000000pt" height="242.000000pt" viewBox="0 0 242.000000 242.000000"
 preserveAspectRatio="xMidYMid meet">
<metadata>
Created by potrace 1.11, written by Peter Selinger 2001-2013
</metadata>
<g transform="translate(0.000000,242.000000) scale(0.100000,-0.100000)"
fill="#000000" stroke="none">
<path d="M775 2188 c4 -128 9 -236 12 -240 2 -4 6 -128 8 -275 2 -157 1 -257
-4 -241 -8 22 -18 88 -20 121 -1 5 -5 6 -10 3 -4 -3 -6 6 -3 19 3 16 0 25 -8
25 -9 0 -9 4 1 17 10 11 10 14 2 9 -9 -5 -13 -1 -14 11 0 10 -3 13 -6 6 -8
-22 -23 -14 -23 12 0 13 -6 30 -14 37 -12 11 -12 16 2 31 13 15 14 18 2 15
-11 -2 -16 11 -21 52 -4 30 -5 66 -3 80 l4 25 -12 -25 c-11 -24 -12 -24 -18
20 -4 25 -8 39 -8 32 -1 -7 -7 -10 -12 -7 -6 4 -8 11 -5 16 4 5 -3 9 -13 9
-11 0 -23 -8 -26 -17 -6 -15 -8 -15 -16 -3 -8 12 -10 10 -11 -7 -2 -36 -3 -41
-11 -49 -11 -10 -10 -62 1 -102 6 -20 6 -32 0 -32 -5 0 -9 -5 -9 -10 0 -6 5
-9 11 -8 6 2 13 -4 14 -12 15 -77 39 -160 46 -160 9 0 6 -20 -5 -38 -5 -8 -3
-12 6 -10 7 2 12 -3 11 -9 -2 -7 5 -13 15 -14 10 0 12 -3 5 -6 -7 -2 -13 -19
-12 -36 1 -31 1 -31 9 -7 7 22 8 21 9 -12 1 -20 5 -48 11 -63 20 -54 36 -175
23 -175 -6 0 -13 -37 -16 -82 -3 -46 -8 -96 -12 -112 -3 -17 -1 -34 7 -44 8
-9 8 -13 2 -9 -8 5 -12 -4 -12 -28 0 -19 4 -35 9 -35 5 0 9 -5 9 -11 0 -5 -5
-7 -11 -3 -8 5 -10 -6 -8 -34 4 -34 2 -39 -13 -37 -10 2 -24 -3 -32 -11 -8 -8
-20 -14 -26 -14 -6 0 -8 -5 -5 -10 4 -6 11 -8 16 -5 5 4 9 -1 9 -9 0 -14 -3
-14 -20 -4 -11 7 -20 16 -20 20 0 4 -18 1 -40 -7 -23 -8 -38 -10 -35 -5 3 5 1
11 -5 15 -5 3 -11 -2 -11 -12 -1 -10 -5 -4 -8 12 -4 17 -4 35 1 41 9 13 -15
38 -25 27 -4 -3 -7 1 -7 10 0 10 5 14 15 11 8 -4 15 -1 15 5 0 19 -32 12 -37
-9 -3 -11 -9 -17 -14 -14 -5 3 -7 9 -4 14 3 5 1 11 -5 15 -6 4 -10 -12 -10
-41 0 -26 -3 -44 -7 -41 -3 4 -6 21 -5 38 1 25 -2 28 -13 19 -11 -9 -14 -4
-18 27 l-4 38 -1 -38 c-2 -34 -3 -36 -22 -25 -16 10 -22 10 -32 -1 -11 -11 -9
-12 12 -6 24 7 24 7 8 -11 -9 -11 -18 -30 -21 -44 l-4 -25 -2 27 c-2 43 -21
44 -23 1 -1 -37 -1 -37 -5 -5 -4 28 -6 31 -24 21 -11 -5 -25 -8 -32 -6 -7 3 3
10 21 17 17 7 32 17 32 23 0 7 -4 7 -12 -1 -7 -7 -22 -12 -35 -12 -22 0 -23
-3 -20 -55 2 -30 0 -55 -4 -55 -5 0 -9 16 -9 36 0 21 -4 33 -10 29 -6 -4 -8
-11 -5 -16 4 -5 2 -9 -4 -9 -5 0 -12 6 -14 13 -3 6 -6 -8 -7 -33 l-2 -45 -10
53 c-5 29 -13 50 -18 47 -5 -3 -11 3 -13 12 -4 17 -5 17 -6 0 0 -10 6 -25 14
-33 17 -18 20 -54 4 -54 -5 0 -7 4 -4 10 3 5 1 18 -4 27 -8 15 -11 11 -12 -22
-2 -34 -3 -36 -6 -10 -3 17 -9 35 -15 40 -8 7 -9 5 -6 -5 3 -8 2 -24 -3 -35
-6 -17 -8 -15 -8 10 -1 23 -3 27 -11 15 -9 -13 -11 -13 -20 0 -6 10 -10 -56
-10 -202 0 -120 4 -218 8 -218 4 0 13 5 20 12 9 9 12 8 12 -6 0 -9 -4 -14 -10
-11 -5 3 -10 1 -10 -4 0 -6 7 -11 15 -11 8 0 15 -9 15 -20 0 -20 19 -23 31 -6
4 5 10 -1 13 -12 8 -23 32 -36 41 -21 4 5 2 8 -3 7 -6 -2 -10 2 -11 7 0 6 9 9
19 7 14 -2 22 5 29 30 l9 33 3 -40 c2 -34 3 -36 6 -11 4 22 7 26 14 15 6 -10
9 -10 9 -1 0 6 7 12 15 12 11 0 15 12 16 43 l2 42 7 -35 c5 -23 8 -28 9 -12 1
26 18 29 24 5 3 -12 5 -8 6 9 1 16 8 28 18 31 17 4 17 5 1 6 -10 0 -18 6 -18
12 0 6 -7 9 -15 5 -9 -3 -15 0 -15 9 0 9 6 12 16 8 10 -4 15 -1 14 8 -5 36 0
48 22 44 16 -4 19 -2 10 7 -17 17 -15 28 3 21 9 -3 15 -2 14 3 -4 23 2 45 11
39 6 -4 7 -11 4 -17 -4 -7 -2 -8 4 -4 7 4 12 14 12 22 0 8 5 14 11 14 8 0 10
12 6 35 -3 19 -2 35 4 35 5 0 10 -15 10 -32 2 -31 2 -31 6 -5 2 15 8 25 13 22
18 -11 52 16 47 35 -5 20 18 48 30 36 3 -3 1 -6 -5 -6 -7 0 -12 -14 -11 -32 1
-30 2 -31 8 -8 9 32 34 32 42 0 4 -17 6 -10 6 23 0 26 3 51 7 54 3 4 6 -2 6
-11 0 -12 5 -16 15 -12 14 5 14 4 0 -16 -8 -13 -15 -27 -15 -33 1 -5 7 1 14
14 8 15 16 20 20 12 4 -6 14 -11 22 -11 8 0 13 4 10 8 -3 5 -1 22 4 38 9 30
11 24 13 -36 2 -30 5 -35 27 -35 15 0 25 -6 25 -15 1 -8 6 -14 13 -12 7 1 12
-5 12 -13 0 -26 1 -30 15 -45 7 -8 16 -33 20 -56 3 -22 13 -53 21 -69 8 -15
12 -30 10 -33 -3 -2 1 -10 9 -18 10 -11 24 -70 29 -126 1 -3 4 -9 8 -13 3 -4
2 -20 -4 -36 -6 -17 -8 -32 -5 -35 3 -3 -1 -27 -9 -52 -7 -26 -14 -57 -14 -69
l0 -23 303 0 302 0 0 118 c-1 84 3 121 13 131 7 7 15 11 19 8 3 -3 16 7 30 24
14 16 31 29 39 29 8 0 14 6 14 14 0 8 7 16 15 20 8 3 15 12 15 20 0 7 7 17 16
20 8 3 13 10 10 15 -3 5 5 16 19 25 14 9 25 21 25 27 0 5 25 35 56 65 49 49
56 60 52 89 -2 19 0 33 6 32 5 -1 10 14 11 33 1 19 14 65 29 101 14 36 26 72
26 80 0 12 2 11 10 -1 8 -12 10 -10 10 8 0 13 4 20 10 17 6 -3 10 1 10 9 0 9
6 16 13 16 15 0 47 35 48 53 0 6 4 3 9 -8 7 -17 9 -17 9 -2 1 9 8 17 16 17 8
0 15 8 16 18 0 9 3 12 6 5 3 -9 11 -7 26 7 11 11 27 20 35 20 8 0 12 6 9 13
-3 9 3 13 17 13 16 -1 22 6 24 28 2 16 0 26 -6 22 -6 -3 -8 -16 -5 -29 3 -12
2 -19 -2 -15 -4 4 -8 21 -7 38 0 16 -4 33 -10 36 -6 4 -8 2 -5 -3 4 -6 -1 -17
-11 -24 -13 -10 -14 -10 -6 0 7 7 10 21 7 31 -7 28 -43 13 -44 -19 -1 -22 -3
-20 -9 9 -6 34 -9 32 -23 -10 -3 -8 -6 -3 -6 12 -1 28 -25 33 -41 8 -6 -10 -9
-8 -13 6 -4 15 -5 14 -6 -5 -1 -24 -1 -24 -16 -5 -11 14 -14 15 -15 4 0 -12
-2 -12 -9 -2 -7 11 -9 10 -15 -3 -3 -9 -10 -13 -16 -10 -5 3 -10 1 -10 -4 0
-6 -5 -11 -11 -11 -7 0 -20 -10 -30 -22 -11 -11 -19 -17 -19 -13 0 9 -23 -14
-55 -56 -19 -24 -22 -25 -50 -12 l-30 14 28 -4 c26 -4 27 -4 10 13 -12 12 -20
14 -25 6 -9 -13 -8 -16 -12 86 -1 43 2 75 7 71 4 -3 3 5 -5 16 -9 16 -10 24
-2 29 6 4 14 29 17 56 4 27 11 53 18 56 6 4 10 20 9 36 -1 16 -1 45 1 64 2 29
3 25 9 -20 l7 -55 1 63 c1 34 8 72 15 83 10 17 10 23 0 26 -23 8 -14 25 10 18
17 -6 19 -4 11 5 -7 7 -9 24 -4 46 5 19 4 32 -1 28 -5 -3 -9 0 -9 5 0 6 5 11
11 11 8 0 8 5 -1 15 -7 8 -17 12 -24 8 -6 -3 -6 0 2 8 6 7 12 28 12 46 0 18 5
33 10 33 6 0 10 5 10 11 0 5 -4 7 -10 4 -6 -4 -10 12 -11 39 -1 25 -3 51 -4
56 -1 6 -4 16 -5 23 -1 6 -6 1 -10 -13 -7 -23 -8 -23 -9 9 -1 25 -5 32 -16 27
-8 -3 -14 0 -12 7 2 14 -76 18 -96 5 -8 -5 -9 -8 0 -8 6 0 9 -9 6 -20 -3 -11
-9 -20 -14 -20 -5 0 -9 -6 -9 -14 0 -15 -30 -26 -72 -26 -16 0 -28 -4 -28 -9
0 -5 20 -7 45 -6 25 2 47 -1 51 -6 3 -5 11 -6 17 -2 8 4 8 1 -1 -9 -10 -13
-10 -19 4 -33 14 -14 15 -21 6 -35 -9 -14 -8 -20 1 -23 9 -3 8 -8 -3 -21 -16
-21 -20 -35 -22 -93 -1 -24 -5 -43 -10 -43 -4 0 -8 -18 -8 -39 0 -27 -5 -41
-16 -45 -13 -5 -14 -9 -4 -21 9 -11 10 -15 1 -15 -8 0 -10 -8 -6 -22 6 -17 4
-20 -9 -15 -9 4 -15 3 -15 -1 1 -4 0 -25 -1 -47 -2 -35 -3 -37 -10 -15 -7 24
-7 23 -12 -10 -4 -35 -4 -35 -15 -10 -11 24 -12 24 -12 3 -1 -13 -5 -23 -10
-23 -6 0 -8 9 -6 20 2 13 -2 20 -11 20 -10 0 -14 14 -14 53 0 28 -3 82 -5 118
-3 47 -1 70 8 77 9 8 12 43 11 126 -1 95 1 116 13 116 10 0 12 6 7 23 -3 12
-11 24 -15 25 -5 2 -9 11 -9 20 0 14 2 14 9 3 7 -11 13 -10 30 6 13 12 19 27
16 35 -4 10 2 22 15 31 16 11 20 21 15 36 -9 30 13 27 25 -3 8 -21 13 -23 57
-20 26 2 66 5 88 7 28 1 40 7 40 17 0 18 -74 27 -85 10 -5 -8 -11 -6 -20 5
-11 13 -4 15 64 15 42 0 75 -3 75 -7 -4 -25 3 -43 17 -43 12 0 15 6 10 25 -8
30 10 34 19 5 8 -26 25 -26 25 0 0 12 10 24 23 30 14 6 -52 9 -186 9 -212 1
-247 6 -247 39 0 13 -2 14 -9 4 -7 -11 -9 -10 -15 3 -3 9 -10 13 -16 10 -6 -3
-10 4 -10 18 0 14 7 27 15 31 18 7 20 -5 3 -22 -10 -10 -7 -12 12 -10 17 2 28
12 36 33 14 38 12 43 -25 37 -19 -3 -28 -9 -24 -16 3 -6 0 -6 -8 2 -18 16 -30
15 -23 -2 4 -11 0 -13 -15 -9 -12 3 -21 1 -21 -6 0 -6 9 -11 20 -11 22 0 27
-24 8 -36 -7 -4 -8 -3 -4 4 5 8 -1 12 -16 11 -13 0 -17 -3 -10 -6 6 -2 12 -12
12 -21 0 -15 -2 -15 -10 -2 -8 12 -10 11 -10 -6 0 -11 -3 -24 -7 -28 -5 -4 -9
-12 -9 -17 -1 -5 -2 -12 -3 -16 -2 -5 -2 -61 -2 -125 0 -85 -3 -118 -12 -118
-7 0 -6 -4 3 -10 10 -6 11 -10 3 -10 -7 0 -13 -5 -13 -11 0 -5 5 -7 10 -4 7 4
7 -2 1 -17 -5 -13 -12 -40 -16 -61 -3 -21 -9 -36 -13 -33 -4 2 -7 -36 -7 -85
0 -49 -3 -89 -7 -89 -5 0 -8 -14 -8 -31 0 -19 4 -28 11 -23 6 3 3 -8 -6 -25
-9 -18 -20 -29 -25 -26 -6 4 -10 0 -10 -7 0 -8 -9 -14 -20 -14 -15 0 -20 7
-20 29 0 16 -4 26 -10 22 -6 -4 -8 -11 -5 -16 4 -5 1 -9 -4 -9 -6 0 -11 18
-11 41 0 22 -4 38 -9 34 -6 -3 -8 6 -5 21 3 14 1 23 -4 20 -5 -3 -10 22 -11
56 -1 36 -7 66 -14 70 -8 5 -8 8 -1 8 7 0 9 11 6 25 -2 14 -8 25 -13 25 -5 0
-9 17 -9 38 -1 20 -7 53 -14 73 -7 20 -13 80 -14 134 0 53 -3 100 -6 103 -3 3
-6 25 -6 50 0 38 -3 44 -18 40 -15 -4 -18 -1 -14 18 2 14 0 24 -7 24 -7 0 -9
-5 -5 -12 5 -9 2 -9 -9 1 -17 13 -18 12 -21 -11 0 -6 -8 -13 -16 -15 -11 -3
-11 -2 -3 4 8 6 9 14 3 23 -9 13 -10 13 -11 0 0 -10 -3 -9 -10 5 -8 18 -9 18
-8 -5 2 -44 -3 -56 -11 -25 -4 17 -8 92 -9 168 l-1 137 -26 0 -26 0 7 -232z
m72 -175 c-3 -10 -5 -4 -5 12 0 17 2 24 5 18 2 -7 2 -21 0 -30z m683 13 c0 -2
-7 -6 -15 -10 -8 -3 -15 -1 -15 4 0 6 7 10 15 10 8 0 15 -2 15 -4z m-683 -148
c-3 -7 -5 -2 -5 12 0 14 2 19 5 13 2 -7 2 -19 0 -25z m780 -10 c-3 -8 -6 -5
-6 6 -1 11 2 17 5 13 3 -3 4 -12 1 -19z m-771 -119 c3 -57 2 -101 -2 -97 -4 4
-9 54 -11 110 -3 57 -2 100 1 97 4 -3 9 -53 12 -110z m514 96 c0 -8 -2 -15 -4
-15 -2 0 -6 7 -10 15 -3 8 -1 15 4 15 6 0 10 -7 10 -15z m170 11 c0 -3 -4 -8
-10 -11 -5 -3 -10 -1 -10 4 0 6 5 11 10 11 6 0 10 -2 10 -4z m-675 -298 c2
-20 8 -32 16 -30 9 2 9 -1 3 -10 -14 -19 -17 -75 -5 -83 6 -3 11 -22 11 -41 0
-21 4 -33 10 -29 6 3 10 1 10 -4 0 -6 -4 -11 -9 -11 -4 0 -7 -19 -6 -42 2 -24
1 -37 -2 -30 -7 18 -23 15 -23 -5 0 -9 -2 -14 -5 -11 -9 9 -19 344 -10 336 4
-4 9 -22 10 -40z m-504 -772 c0 -6 2 -19 4 -29 2 -9 -1 -15 -6 -11 -5 3 -9 12
-9 21 0 11 -3 13 -13 5 -9 -8 -17 -8 -27 0 -12 8 -12 9 3 4 10 -3 17 0 17 8 0
15 30 17 31 2z m59 -2 c0 -8 -4 -12 -10 -9 -5 3 -10 10 -10 16 0 5 5 9 10 9 6
0 10 -7 10 -16z m-207 -44 c-3 -11 -7 -20 -9 -20 -2 0 -4 9 -4 20 0 11 4 20 9
20 5 0 7 -9 4 -20z m205 -4 c-1 -14 -5 -23 -9 -20 -7 4 0 44 7 44 2 0 3 -11 2
-24z m210 -7 c-3 -8 -7 -3 -11 10 -4 17 -3 21 5 13 5 -5 8 -16 6 -23z m-313
-9 c3 -5 1 -10 -4 -10 -6 0 -11 5 -11 10 0 6 2 10 4 10 3 0 8 -4 11 -10z m249
-5 c11 -8 17 -18 13 -21 -3 -3 -16 3 -28 15 -26 24 -14 28 15 6z m-114 1 c0
-3 -4 -8 -10 -11 -5 -3 -10 -1 -10 4 0 6 5 11 10 11 6 0 10 -2 10 -4z m-80
-23 c0 -9 -3 -13 -7 -10 -3 4 -11 2 -18 -3 -8 -7 -12 -5 -12 5 0 8 4 12 8 9 4
-2 10 0 14 6 9 15 15 12 15 -7z m17 -20 c-3 -10 -5 -4 -5 12 0 17 2 24 5 18 2
-7 2 -21 0 -30z m80 5 c-3 -7 -5 -2 -5 12 0 14 2 19 5 13 2 -7 2 -19 0 -25z
m-437 12 c0 -5 -2 -10 -4 -10 -3 0 -8 5 -11 10 -3 6 -1 10 4 10 6 0 11 -4 11
-10z m177 -27 c-3 -10 -5 -4 -5 12 0 17 2 24 5 18 2 -7 2 -21 0 -30z m30 22
c0 -8 -4 -12 -9 -9 -5 3 -6 10 -3 15 9 13 12 11 12 -6z m83 5 c0 -5 -5 -10
-11 -10 -5 0 -7 5 -4 10 3 6 8 10 11 10 2 0 4 -4 4 -10z m210 -14 c0 -3 -4 -8
-10 -11 -5 -3 -10 -1 -10 4 0 6 5 11 10 11 6 0 10 -2 10 -4z m-260 -10 c0 -3
-4 -8 -10 -11 -5 -3 -10 -1 -10 4 0 6 5 11 10 11 6 0 10 -2 10 -4z m48 -27
c-3 -8 -7 -3 -11 10 -4 17 -3 21 5 13 5 -5 8 -16 6 -23z m347 21 c-3 -5 -12
-10 -18 -10 -7 0 -6 4 3 10 19 12 23 12 15 0z m-605 -4 c0 -3 -4 -8 -10 -11
-5 -3 -10 -1 -10 4 0 6 5 11 10 11 6 0 10 -2 10 -4z m227 -18 c-3 -8 -6 -5 -6
6 -1 11 2 17 5 13 3 -3 4 -12 1 -19z m154 -30 c-12 -11 -13 -10 -8 5 4 9 2 17
-2 17 -5 0 -11 -6 -14 -12 -2 -7 -4 -1 -3 14 1 27 1 27 21 8 16 -17 17 -22 6
-32z m-73 8 c-1 -19 -5 -33 -8 -31 -7 4 -1 65 6 65 3 0 4 -15 2 -34z m-31 2
c-3 -8 -6 -5 -6 6 -1 11 2 17 5 13 3 -3 4 -12 1 -19z m-11 -103 c1 -8 -2 -13
-7 -9 -5 3 -9 12 -9 21 0 19 13 9 16 -12z m-115 -112 c-12 -20 -14 -14 -5 12
4 9 9 14 11 11 3 -2 0 -13 -6 -23z m39 -13 c0 -5 -4 -10 -10 -10 -5 0 -10 5
-10 10 0 6 5 10 10 10 6 0 10 -4 10 -10z m40 -24 c0 -11 -19 -15 -25 -6 -3 5
1 10 9 10 9 0 16 -2 16 -4z m-93 -68 c-3 -8 -6 -5 -6 6 -1 11 2 17 5 13 3 -3
4 -12 1 -19z"/>
<path d="M871 1414 c0 -11 3 -14 6 -6 3 7 2 16 -1 19 -3 4 -6 -2 -5 -13z"/>
<path d="M1676 2412 c-13 -13 -4 -31 17 -35 16 -3 14 -5 -10 -6 -26 -1 -30 2
-26 18 4 16 -1 19 -46 18 -28 -1 -51 -6 -51 -12 0 -6 -3 -7 -8 0 -9 13 -42 16
-42 3 0 -5 -10 -6 -21 -3 -14 5 -25 2 -30 -6 -6 -10 -9 -11 -9 -1 0 6 -7 12
-15 12 -10 0 -15 -10 -15 -26 0 -22 -3 -24 -14 -15 -10 9 -16 9 -21 1 -15 -24
-20 -24 301 -11 28 1 32 5 36 34 3 27 0 32 -19 33 -12 1 -24 -1 -27 -4z m-36
-33 c-7 -11 -14 -19 -16 -16 -7 7 7 37 17 37 6 0 5 -9 -1 -21z m-178 -13 c7 4
8 2 4 -5 -9 -14 -36 3 -36 23 0 6 5 3 11 -7 6 -9 15 -14 21 -11z"/>
<path d="M1760 2407 c0 -4 -4 -6 -9 -3 -10 6 -25 -24 -16 -32 3 -3 5 0 5 5 0
6 8 10 18 8 18 -3 18 -25 -1 -37 -7 -4 -8 -8 -3 -8 5 0 18 8 29 18 19 16 19
16 13 -8 -5 -22 -4 -21 8 4 9 19 16 25 21 17 10 -17 -3 -61 -18 -61 -6 0 -21
-7 -32 -16 -17 -13 -18 -16 -5 -24 22 -14 30 -12 37 8 3 9 14 26 23 37 13 15
16 30 11 60 -6 39 -7 41 -43 41 -21 0 -38 -4 -38 -9z"/>
<path d="M1990 2400 c0 -18 -3 -21 -9 -12 -7 11 -9 10 -14 -3 -4 -9 -3 -14 3
-10 6 4 14 -4 19 -17 11 -25 11 -25 16 12 1 14 -1 32 -6 40 -6 11 -9 9 -9 -10z"/>
<path d="M2020 2415 c-1 -5 -1 -27 0 -47 1 -30 -2 -38 -15 -38 -15 0 -15 -3
-5 -15 11 -13 15 -13 22 -3 7 10 9 10 5 -2 -2 -8 -11 -14 -21 -12 -9 2 -16 -2
-16 -8 0 -5 6 -10 14 -10 8 0 17 -8 19 -17 3 -13 5 -11 6 6 1 24 1 24 16 5 14
-17 15 -14 13 38 -1 32 2 61 5 65 4 3 7 -17 7 -45 0 -38 4 -52 14 -52 8 0 17
-10 19 -22 3 -17 5 -14 6 9 1 24 -3 31 -13 27 -10 -4 -13 6 -13 41 0 49 13 49
20 0 2 -16 4 -3 4 30 1 33 -1 52 -4 43 -2 -10 -9 -18 -15 -18 -5 0 -8 7 -4 15
8 21 -10 19 -19 -2 -7 -17 -8 -16 -16 2 -6 14 -8 2 -6 -37 4 -70 -5 -67 -14 5
-3 29 -7 48 -9 42z"/>
<path d="M2151 2408 c0 -10 -8 -18 -16 -18 -9 0 -15 -9 -15 -25 0 -14 5 -25
11 -25 6 0 9 9 6 20 -3 11 -1 20 4 20 5 0 9 -22 9 -50 0 -27 3 -50 8 -50 6 0
5 79 -2 125 -3 15 -4 16 -5 3z"/>
<path d="M2170 2385 c0 -19 4 -35 8 -35 4 0 6 16 4 35 -2 19 -6 35 -8 35 -2 0
-4 -16 -4 -35z"/>
<path d="M2215 2308 c2 -62 7 -198 10 -303 5 -178 8 -226 19 -365 3 -30 7
-179 10 -330 4 -151 8 -320 11 -375 3 -55 7 -201 10 -325 4 -124 8 -290 10
-370 2 -80 4 -166 5 -192 0 -29 5 -48 11 -48 8 0 10 45 5 163 -3 89 -8 254
-11 367 -3 113 -7 252 -10 310 -14 316 -22 877 -13 920 3 14 1 30 -4 37 -5 7
-5 14 2 18 5 3 10 18 10 33 0 21 -2 24 -10 12 -8 -13 -10 -12 -10 3 0 9 5 17
11 17 8 0 7 6 -2 17 -8 9 -9 14 -3 11 7 -5 9 52 7 185 -1 106 -2 222 -3 260
l0 67 -30 0 -29 0 4 -112z"/>
<path d="M2393 2340 c0 -47 2 -66 4 -42 2 23 2 61 0 85 -2 23 -4 4 -4 -43z"/>
<path d="M2362 2385 c0 -16 2 -22 5 -12 2 9 2 23 0 30 -3 6 -5 -1 -5 -18z"/>
<path d="M1892 2370 c0 -14 2 -19 5 -12 2 6 2 18 0 25 -3 6 -5 1 -5 -13z"/>
<path d="M2311 2364 c0 -11 3 -14 6 -6 3 7 2 16 -1 19 -3 4 -6 -2 -5 -13z"/>
<path d="M2342 2316 c-1 -48 -7 -75 -19 -88 -9 -10 -12 -18 -6 -18 21 0 34 47
30 110 l-3 65 -2 -69z"/>
<path d="M1324 2348 c-3 -4 4 -8 15 -8 12 0 21 4 21 8 0 5 -7 9 -15 9 -9 0
-18 -4 -21 -9z"/>
<path d="M1860 2350 c0 -5 5 -10 11 -10 5 0 7 5 4 10 -3 6 -8 10 -11 10 -2 0
-4 -4 -4 -10z"/>
<path d="M1942 2335 c0 -16 2 -22 5 -12 2 9 2 23 0 30 -3 6 -5 -1 -5 -18z"/>
<path d="M1968 2308 c5 -89 9 -97 11 -20 0 39 -2 72 -6 72 -5 0 -7 -24 -5 -52z"/>
<path d="M2171 2333 c0 -5 4 -17 9 -28 8 -18 9 -17 9 8 1 15 -3 27 -9 27 -5 0
-10 -3 -9 -7z"/>
<path d="M152 2310 c0 -14 2 -19 5 -12 2 6 2 18 0 25 -3 6 -5 1 -5 -13z"/>
<path d="M2120 2311 c0 -11 5 -23 10 -26 6 -4 10 5 10 19 0 14 -4 26 -10 26
-5 0 -10 -9 -10 -19z"/>
<path d="M2312 2305 c0 -16 2 -22 5 -12 2 9 2 23 0 30 -3 6 -5 -1 -5 -18z"/>
<path d="M220 2311 c0 -5 5 -13 10 -16 6 -3 10 -2 10 4 0 5 -4 13 -10 16 -5 3
-10 2 -10 -4z"/>
<path d="M173 2295 c0 -8 4 -12 9 -9 5 3 6 10 3 15 -9 13 -12 11 -12 -6z"/>
<path d="M250 2291 c0 -11 4 -22 9 -25 4 -3 6 6 3 19 -5 30 -12 33 -12 6z"/>
<path d="M270 2301 c0 -5 5 -13 10 -16 6 -3 10 -2 10 4 0 5 -4 13 -10 16 -5 3
-10 2 -10 -4z"/>
<path d="M1426 2303 c-10 -10 -7 -27 10 -48 l15 -20 16 20 c12 16 14 16 10 3
-6 -18 -6 -18 73 -5 24 4 40 17 40 31 0 9 -17 12 -62 11 -35 -1 -70 2 -79 6
-9 5 -19 5 -23 2z"/>
<path d="M1593 2275 c-13 -30 1 -44 16 -16 6 11 11 24 11 30 0 19 -15 11 -27
-14z"/>
<path d="M1826 2283 c-6 -14 -5 -15 5 -6 7 7 10 15 7 18 -3 3 -9 -2 -12 -12z"/>
<path d="M1258 2276 c-18 -14 -14 -26 9 -26 7 0 13 7 13 16 0 9 5 12 12 8 7
-4 8 -3 4 4 -9 15 -17 15 -38 -2z"/>
<path d="M202 2255 c0 -16 2 -22 5 -12 2 9 2 23 0 30 -3 6 -5 -1 -5 -18z"/>
<path d="M2170 2272 c-8 -4 -17 -23 -19 -42 -3 -39 6 -38 13 1 2 13 9 23 15
22 6 -2 11 4 11 12 0 8 -1 15 -2 14 -2 0 -10 -3 -18 -7z"/>
<path d="M1942 2250 c0 -14 2 -19 5 -12 2 6 2 18 0 25 -3 6 -5 1 -5 -13z"/>
<path d="M1991 2254 c0 -11 3 -14 6 -6 3 7 2 16 -1 19 -3 4 -6 -2 -5 -13z"/>
<path d="M2073 2250 c-1 -11 2 -20 5 -20 4 0 8 9 9 20 1 11 -2 20 -5 20 -4 0
-8 -9 -9 -20z"/>
<path d="M2128 2240 c2 -16 6 -30 8 -30 2 0 4 14 4 30 0 17 -4 30 -8 30 -5 0
-7 -13 -4 -30z"/>
<path d="M181 2244 c0 -11 3 -14 6 -6 3 7 2 16 -1 19 -3 4 -6 -2 -5 -13z"/>
<path d="M229 2223 c5 -34 6 -35 9 -10 3 22 8 27 20 23 13 -5 12 -3 -2 9 -29
22 -33 19 -27 -22z"/>
<path d="M2051 2214 c0 -11 3 -14 6 -6 3 7 2 16 -1 19 -3 4 -6 -2 -5 -13z"/>
<path d="M101 2194 c0 -11 3 -14 6 -6 3 7 2 16 -1 19 -3 4 -6 -2 -5 -13z"/>
<path d="M1971 2194 c0 -11 3 -14 6 -6 3 7 2 16 -1 19 -3 4 -6 -2 -5 -13z"/>
<path d="M2343 2155 c0 -33 2 -45 4 -27 2 18 2 45 0 60 -2 15 -4 0 -4 -33z"/>
<path d="M1648 2193 c7 -3 16 -2 19 1 4 3 -2 6 -13 5 -11 0 -14 -3 -6 -6z"/>
<path d="M1690 2185 c7 -8 17 -15 22 -15 5 0 3 7 -6 15 -8 8 -18 15 -22 15 -3
0 -1 -7 6 -15z"/>
<path d="M2313 2186 c3 -7 0 -25 -7 -38 -11 -20 -11 -25 0 -25 8 0 14 3 15 6
5 38 4 71 -4 71 -5 0 -7 -6 -4 -14z"/>
<path d="M2373 2155 c0 -27 2 -38 4 -22 2 15 2 37 0 50 -2 12 -4 0 -4 -28z"/>
<path d="M2401 2174 c0 -11 3 -14 6 -6 3 7 2 16 -1 19 -3 4 -6 -2 -5 -13z"/>
<path d="M1380 2166 c0 -8 8 -13 18 -11 9 2 19 4 22 4 7 2 -23 21 -32 21 -5 0
-8 -6 -8 -14z"/>
<path d="M1658 2173 c7 -3 16 -2 19 1 4 3 -2 6 -13 5 -11 0 -14 -3 -6 -6z"/>
<path d="M181 2124 c0 -11 3 -14 6 -6 3 7 2 16 -1 19 -3 4 -6 -2 -5 -13z"/>
<path d="M1408 2133 c6 -2 18 -2 25 0 6 3 1 5 -13 5 -14 0 -19 -2 -12 -5z"/>
<path d="M2310 2100 c0 -5 8 -13 17 -19 13 -7 16 -20 14 -59 -1 -27 1 -52 6
-55 4 -3 7 20 7 51 -1 38 -7 59 -18 67 -8 7 -13 15 -9 18 3 4 1 7 -5 7 -7 0
-12 -4 -12 -10z"/>
<path d="M2394 2030 c2 -44 6 -83 9 -87 4 -3 6 9 6 28 -1 19 0 39 1 44 6 25
-1 95 -9 95 -5 0 -8 -36 -7 -80z"/>
<path d="M2368 2018 c5 -150 8 -165 10 -40 1 67 -1 122 -5 122 -5 0 -7 -37 -5
-82z"/>
<path d="M2315 2060 c3 -5 8 -10 11 -10 2 0 4 5 4 10 0 6 -5 10 -11 10 -5 0
-7 -4 -4 -10z"/>
<path d="M2313 2015 c0 -14 3 -25 8 -25 5 0 9 11 9 25 0 14 -4 25 -9 25 -5 0
-8 -11 -8 -25z"/>
<path d="M43 2002 c-24 -2 -43 -8 -43 -14 0 -7 20 -9 61 -4 34 3 113 6 175 6
74 0 114 4 114 11 0 10 -179 10 -307 1z"/>
<path d="M1770 1990 c0 -5 5 -10 10 -10 6 0 10 5 10 10 0 6 -4 10 -10 10 -5 0
-10 -4 -10 -10z"/>
<path d="M268 1972 c-33 -3 -38 -7 -38 -28 0 -19 5 -25 18 -22 9 2 16 11 16
21 -2 24 13 21 21 -3 4 -11 11 -18 16 -14 5 3 6 10 3 16 -4 6 -1 14 6 18 18
11 1 16 -42 12z"/>
<path d="M2323 1935 c0 -27 2 -38 4 -22 2 15 2 37 0 50 -2 12 -4 0 -4 -28z"/>
<path d="M17 1962 c-12 -2 -16 -9 -13 -19 3 -8 6 -19 6 -24 0 -6 4 -8 9 -4 5
3 48 6 95 6 66 0 86 4 90 16 10 24 -1 31 -49 31 -33 -1 -45 -5 -45 -16 0 -13
-3 -12 -14 3 -13 18 -13 18 -24 -1 -9 -15 -11 -16 -12 -3 0 16 -10 18 -43 11z"/>
<path d="M1780 1939 c0 -5 5 -7 10 -4 6 3 10 8 10 11 0 2 -4 4 -10 4 -5 0 -10
-5 -10 -11z"/>
<path d="M2345 1940 c3 -5 8 -10 11 -10 2 0 4 5 4 10 0 6 -5 10 -11 10 -5 0
-7 -4 -4 -10z"/>
<path d="M102 1792 c-57 -1 -102 -7 -102 -12 0 -11 171 -12 210 -1 42 12 3 16
-108 13z"/>
<path d="M1412 1745 c0 -16 2 -22 5 -12 2 9 2 23 0 30 -3 6 -5 -1 -5 -18z"/>
<path d="M40 1741 c0 -5 -9 -11 -21 -14 -31 -8 -18 -33 15 -29 18 2 25 -1 21
-7 -4 -7 12 -11 44 -11 31 0 51 4 51 11 0 6 8 9 18 7 21 -6 29 32 9 44 -17 11
-137 10 -137 -1z"/>
<path d="M1689 1702 c-3 -20 -2 -29 4 -23 5 5 7 19 5 32 -3 20 -5 19 -9 -9z"/>
<path d="M1631 1274 c0 -11 3 -14 6 -6 3 7 2 16 -1 19 -3 4 -6 -2 -5 -13z"/>
<path d="M411 974 c0 -11 3 -14 6 -6 3 7 2 16 -1 19 -3 4 -6 -2 -5 -13z"/>
<path d="M361 934 c0 -11 3 -14 6 -6 3 7 2 16 -1 19 -3 4 -6 -2 -5 -13z"/>
<path d="M393 895 c0 -22 2 -30 4 -17 2 12 2 30 0 40 -3 9 -5 -1 -4 -23z"/>
<path d="M367 903 c-10 -10 -8 -43 2 -43 5 0 8 11 7 25 0 14 -1 25 -2 25 0 0
-4 -3 -7 -7z"/>
<path d="M310 889 c0 -5 5 -7 10 -4 6 3 10 8 10 11 0 2 -4 4 -10 4 -5 0 -10
-5 -10 -11z"/>
<path d="M262 845 c0 -16 2 -22 5 -12 2 9 2 23 0 30 -3 6 -5 -1 -5 -18z"/>
<path d="M480 840 c-11 -7 -12 -12 -4 -20 9 -9 14 -9 18 -1 4 6 4 11 -1 11 -4
0 -1 5 7 10 8 5 11 10 5 10 -5 0 -17 -5 -25 -10z"/>
<path d="M553 795 c0 -22 2 -30 4 -17 2 12 2 30 0 40 -3 9 -5 -1 -4 -23z"/>
<path d="M602 810 c0 -14 2 -19 5 -12 2 6 2 18 0 25 -3 6 -5 1 -5 -13z"/>
<path d="M632 805 c0 -16 2 -22 5 -12 2 9 2 23 0 30 -3 6 -5 -1 -5 -18z"/>
<path d="M464 778 c-3 -4 -4 -8 -2 -9 25 -6 35 -5 35 5 0 14 -25 17 -33 4z"/>
<path d="M514 773 c3 -16 16 -22 16 -8 0 3 0 10 0 15 0 6 -4 10 -9 10 -5 0 -8
-8 -7 -17z"/>
<path d="M500 620 c0 -5 5 -10 10 -10 6 0 10 5 10 10 0 6 -4 10 -10 10 -5 0
-10 -4 -10 -10z"/>
<path d="M580 619 c0 -5 5 -7 10 -4 6 3 10 8 10 11 0 2 -4 4 -10 4 -5 0 -10
-5 -10 -11z"/>
<path d="M630 585 c0 -8 2 -15 4 -15 2 0 6 7 10 15 3 8 1 15 -4 15 -6 0 -10
-7 -10 -15z"/>
<path d="M327 419 c4 -13 8 -18 11 -10 2 7 -1 18 -6 23 -8 8 -9 4 -5 -13z"/>
<path d="M302 400 c0 -14 2 -19 5 -12 2 6 2 18 0 25 -3 6 -5 1 -5 -13z"/>
<path d="M280 290 c0 -5 5 -10 11 -10 5 0 7 5 4 10 -3 6 -8 10 -11 10 -2 0 -4
-4 -4 -10z"/>
<path d="M257 271 c3 -12 11 -17 19 -14 11 4 11 7 -1 19 -19 19 -24 18 -18 -5z"/>
<path d="M330 280 c0 -5 5 -10 11 -10 5 0 7 5 4 10 -3 6 -8 10 -11 10 -2 0 -4
-4 -4 -10z"/>
<path d="M20 255 c0 -8 2 -15 4 -15 2 0 6 7 10 15 3 8 1 15 -4 15 -6 0 -10 -7
-10 -15z"/>
<path d="M231 254 c0 -11 3 -14 6 -6 3 7 2 16 -1 19 -3 4 -6 -2 -5 -13z"/>
<path d="M311 254 c0 -11 3 -14 6 -6 3 7 2 16 -1 19 -3 4 -6 -2 -5 -13z"/>
<path d="M421 204 c0 -11 3 -14 6 -6 3 7 2 16 -1 19 -3 4 -6 -2 -5 -13z"/>
<path d="M472 165 c0 -16 2 -22 5 -12 2 9 2 23 0 30 -3 6 -5 -1 -5 -18z"/>
<path d="M444 120 c0 -11 4 -20 8 -20 4 0 8 9 8 20 0 11 -4 20 -8 20 -4 0 -8
-9 -8 -20z"/>
<path d="M521 119 c-1 -16 4 -26 14 -26 9 0 11 4 6 11 -4 6 -11 18 -14 26 -3
9 -6 5 -6 -11z"/>
<path d="M480 121 c0 -5 -7 -16 -15 -24 -13 -13 -13 -16 0 -21 10 -4 15 1 15
15 0 11 4 18 8 15 5 -3 9 1 9 9 0 8 -4 15 -9 15 -4 0 -8 -4 -8 -9z"/>
<path d="M500 75 c0 -16 16 -20 24 -6 3 5 -1 11 -9 15 -9 3 -15 0 -15 -9z"/>
<path d="M517 37 c-3 -8 0 -14 7 -14 7 0 13 6 13 14 0 7 -4 13 -8 13 -4 0 -9
-6 -12 -13z"/>
<path d="M551 14 c0 -11 3 -14 6 -6 3 7 2 16 -1 19 -3 4 -6 -2 -5 -13z"/>
<path d="M581 14 c0 -11 3 -14 6 -6 3 7 2 16 -1 19 -3 4 -6 -2 -5 -13z"/>
</g>
</svg>
